HIERARCHY
ROOT Hips
{
  OFFSET 5.84602e-005 68.8428 3.50346
  CHANNELS 6 Xposition Yposition Zposition Zrotation Xrotation Yrotation
  JOINT Spine
  {
    OFFSET 0 8.597 -4.6522
    CHANNELS 3 Zrotation Xrotation Yrotation
    JOINT Spine1
    {
      OFFSET 0 7.8454 0.4098
      CHANNELS 3 Zrotation Xrotation Yrotation
      JOINT Spine2
      {
        OFFSET 0 9.7078 -2.1609
        CHANNELS 3 Zrotation Xrotation Yrotation
        JOINT Neck
        {
          OFFSET 0 21.8761 -0.4549
          CHANNELS 3 Zrotation Xrotation Yrotation
          JOINT Head
          {
            OFFSET 0 12.3537 3.3602
            CHANNELS 3 Zrotation Xrotation Yrotation
            End Site
            {
              OFFSET 0.0001 18.9506 0.5657
            }
          }
        }
        JOINT LeftShoulder
        {
          OFFSET 2.2086 21.1115 7.2329
          CHANNELS 3 Zrotation Xrotation Yrotation
          JOINT LeftArm
          {
            OFFSET 13.1193 3.0282 -4.8998
            CHANNELS 3 Zrotation Xrotation Yrotation
            JOINT LeftForeArm
            {
              OFFSET 27.4081 -0.0973053 -0.2375
              CHANNELS 3 Zrotation Xrotation Yrotation
              JOINT LeftHand
              {
                OFFSET 22.8641 0.0662994 -0.1369
                CHANNELS 3 Zrotation Xrotation Yrotation
                JOINT LeftHandIndex1
                {
                  OFFSET 8.8614 0.775009 2.4612
                  CHANNELS 3 Zrotation Xrotation Yrotation
                  JOINT LeftHandIndex2
                  {
                    OFFSET 3.3146 -0.808304 0.5841
                    CHANNELS 3 Zrotation Xrotation Yrotation
                    JOINT LeftHandIndex3
                    {
                      OFFSET 2.2628 -0.552002 0.3989
                      CHANNELS 3 Zrotation Xrotation Yrotation
                      End Site
                      {
                        OFFSET 1.6102 -0.4807 0.2612
                      }
                    }
                  }
                }
                JOINT LeftHandMiddle1
                {
                  OFFSET 8.9937 0.895004 0.2143
                  CHANNELS 3 Zrotation Xrotation Yrotation
                  JOINT LeftHandMiddle2
                  {
                    OFFSET 4.0984 0.0113983 -0.0242
                    CHANNELS 3 Zrotation Xrotation Yrotation
                    JOINT LeftHandMiddle3
                    {
                      OFFSET 2.2716 0.00689697 -0.0138001
                      CHANNELS 3 Zrotation Xrotation Yrotation
                      End Site
                      {
                        OFFSET 2.0404 -0.1441 0.0027
                      }
                    }
                  }
                }
                JOINT LeftHandRing1
                {
                  OFFSET 8.5234 0.597198 -2.0164
                  CHANNELS 3 Zrotation Xrotation Yrotation
                  JOINT LeftHandRing2
                  {
                    OFFSET 3.7188 -0.188293 -0.2328
                    CHANNELS 3 Zrotation Xrotation Yrotation
                    JOINT LeftHandRing3
                    {
                      OFFSET 2.1191 -0.106598 -0.1332
                      CHANNELS 3 Zrotation Xrotation Yrotation
                      End Site
                      {
                        OFFSET 1.8737 -0.2304 -0.0886
                      }
                    }
                  }
                }
                JOINT LeftHandPinky1
                {
                  OFFSET 7.9094 -0.601089 -3.4825
                  CHANNELS 3 Zrotation Xrotation Yrotation
                  JOINT LeftHandPinky2
                  {
                    OFFSET 2.2874 -0.477005 -0.6314
                    CHANNELS 3 Zrotation Xrotation Yrotation
                    JOINT LeftHandPinky3
                    {
                      OFFSET 1.6774 -0.349396 -0.4633
                      CHANNELS 3 Zrotation Xrotation Yrotation
                      End Site
                      {
                        OFFSET 1.4888 -0.4091 -0.3416
                      }
                    }
                  }
                }
                JOINT LeftHandThumb1
                {
                  OFFSET 1.833 -1.3875 1.3896
                  CHANNELS 3 Zrotation Xrotation Yrotation
                  JOINT LeftHandThumb2
                  {
                    OFFSET 3.4129 -1.121 2.5732
                    CHANNELS 3 Zrotation Xrotation Yrotation
                    JOINT LeftHandThumb3
                    {
                      OFFSET 2.2474 -0.804199 1.6192
                      CHANNELS 3 Zrotation Xrotation Yrotation
                      End Site
                      {
                        OFFSET 1.6527 -0.5689 1.1317
                      }
                    }
                  }
                }
              }
            }
          }
        }
        JOINT RightShoulder
        {
          OFFSET -2.2086 21.1115 7.2329
          CHANNELS 3 Zrotation Xrotation Yrotation
          JOINT RightArm
          {
            OFFSET -13.1216 3.0287 -4.9007
            CHANNELS 3 Zrotation Xrotation Yrotation
            JOINT RightForeArm
            {
              OFFSET -27.4081 -0.0973053 -0.2375
              CHANNELS 3 Zrotation Xrotation Yrotation
              JOINT RightHand
              {
                OFFSET -22.8641 0.0664063 -0.1369
                CHANNELS 3 Zrotation Xrotation Yrotation
                JOINT RightHandIndex1
                {
                  OFFSET -8.8614 0.774994 2.4612
                  CHANNELS 3 Zrotation Xrotation Yrotation
                  JOINT RightHandIndex2
                  {
                    OFFSET -3.3146 -0.808304 0.5841
                    CHANNELS 3 Zrotation Xrotation Yrotation
                    JOINT RightHandIndex3
                    {
                      OFFSET -2.2628 -0.552002 0.3989
                      CHANNELS 3 Zrotation Xrotation Yrotation
                      End Site
                      {
                        OFFSET -1.6102 -0.4807 0.2612
                      }
                    }
                  }
                }
                JOINT RightHandMiddle1
                {
                  OFFSET -8.9937 0.894989 0.2143
                  CHANNELS 3 Zrotation Xrotation Yrotation
                  JOINT RightHandMiddle2
                  {
                    OFFSET -4.0984 0.0113983 -0.0242
                    CHANNELS 3 Zrotation Xrotation Yrotation
                    JOINT RightHandMiddle3
                    {
                      OFFSET -2.2716 0.00691223 -0.0138001
                      CHANNELS 3 Zrotation Xrotation Yrotation
                      End Site
                      {
                        OFFSET -2.0404 -0.1441 0.0027
                      }
                    }
                  }
                }
                JOINT RightHandRing1
                {
                  OFFSET -8.5234 0.597198 -2.0164
                  CHANNELS 3 Zrotation Xrotation Yrotation
                  JOINT RightHandRing2
                  {
                    OFFSET -3.7188 -0.188309 -0.2328
                    CHANNELS 3 Zrotation Xrotation Yrotation
                    JOINT RightHandRing3
                    {
                      OFFSET -2.1191 -0.106598 -0.1332
                      CHANNELS 3 Zrotation Xrotation Yrotation
                      End Site
                      {
                        OFFSET -1.8737 -0.2304 -0.0886
                      }
                    }
                  }
                }
                JOINT RightHandPinky1
                {
                  OFFSET -7.9094 -0.601105 -3.4825
                  CHANNELS 3 Zrotation Xrotation Yrotation
                  JOINT RightHandPinky2
                  {
                    OFFSET -2.2874 -0.477005 -0.6314
                    CHANNELS 3 Zrotation Xrotation Yrotation
                    JOINT RightHandPinky3
                    {
                      OFFSET -1.6774 -0.349396 -0.4633
                      CHANNELS 3 Zrotation Xrotation Yrotation
                      End Site
                      {
                        OFFSET -1.4888 -0.4091 -0.3416
                      }
                    }
                  }
                }
                JOINT RightHandThumb1
                {
                  OFFSET -1.833 -1.38751 1.3896
                  CHANNELS 3 Zrotation Xrotation Yrotation
                  JOINT RightHandThumb2
                  {
                    OFFSET -3.41299 -1.12099 2.5732
                    CHANNELS 3 Zrotation Xrotation Yrotation
                    JOINT RightHandThumb3
                    {
                      OFFSET -2.24741 -0.804108 1.6192
                      CHANNELS 3 Zrotation Xrotation Yrotation
                      End Site
                      {
                        OFFSET -1.6527 -0.5689 1.1317
                      }
                    }
                  }
                }
              }
            }
          }
        }
      }
    }
  }
  JOINT RightUpLeg
  {
    OFFSET -9.1966 3.8861 -0.7581
    CHANNELS 3 Zrotation Xrotation Yrotation
    JOINT RightLeg
    {
      OFFSET -0.7359 -41.0265 0
      CHANNELS 3 Zrotation Xrotation Yrotation
      JOINT RightFoot
      {
        OFFSET 0 -40.2855 0
        CHANNELS 3 Zrotation Xrotation Yrotation
        JOINT RightToeBase
        {
          OFFSET 0 -5.6122 11.7359
          CHANNELS 3 Zrotation Xrotation Yrotation
          End Site
          {
            OFFSET 0 0 7.8731
          }
        }
      }
    }
  }
  JOINT LeftUpLeg
  {
    OFFSET 9.1965 3.8864 -0.7581
    CHANNELS 3 Zrotation Xrotation Yrotation
    JOINT LeftLeg
    {
      OFFSET 0.7359 -41.0268 0
      CHANNELS 3 Zrotation Xrotation Yrotation
      JOINT LeftFoot
      {
        OFFSET 0 -40.2855 0
        CHANNELS 3 Zrotation Xrotation Yrotation
        JOINT LeftToeBase
        {
          OFFSET 0 -5.6122 11.7359
          CHANNELS 3 Zrotation Xrotation Yrotation
          End Site
          {
            OFFSET 0 0 7.8731
          }
        }
      }
    }
  }
}
MOTION
Frames:	5
Frame Time:	0.0333333
1.6298 41.956 4.20667 0 31.8741 -0 0.247119 -3.06609 -0.274931 0.480513 -6.1333 -0.537753 0.480513 -6.13331 -0.537753 6.56957 18.5695 0.121958 1.04821 6.1591 9.14559 -22.1824 -18.2263 -37.2306 -71.1987 54.4418 26.9683 -6.72681 3.57461 -33.9121 12.7343 -39.2258 -18.8364 7.38453e-007 1.44755e-006 -1.73457e-007 5.216e-007 -5.87082e-007 -7.22053e-007 7.3024e-007 -8.21915e-007 -1.01087e-006 7.38453e-007 1.44755e-006 -1.73457e-007 -0.0146481 -8.87837e-005 -3.65712e-006 7.30234e-007 -8.21786e-007 -1.01098e-006 7.38453e-007 1.44755e-006 -1.73457e-007 -0.018759 -0.00117807 6.11115e-005 -1.14468e-007 -2.15205e-006 -6.93352e-007 7.38453e-007 1.44755e-006 -1.73457e-007 -0.0122279 -0.00324071 0.0006739 7.30202e-007 -8.21813e-007 -1.01098e-006 7.38453e-007 1.44755e-006 -1.73457e-007 5.216e-007 -5.87082e-007 -7.22053e-007 7.3024e-007 -8.21915e-007 -1.01087e-006 4.59596 13.7793 25.6776 44.3215 -3.66085 -24.1319 25.5677 23.9526 75.467 -28.6718 -21.9516 13.9368 6.95746e-016 5.46658e-016 -9.54166e-015 7.95139e-016 3.47873e-016 -9.54166e-015 8.44835e-016 6.95746e-016 -9.54166e-015 6.95746e-016 5.46658e-016 -9.54166e-015 0.0149869 -8.97385e-005 -5.39041e-006 1.98785e-016 -9.93923e-016 9.54166e-015 6.95746e-016 5.46658e-016 -9.54166e-015 0.0190168 -0.0011955 -5.71589e-005 4.96962e-016 1.59028e-015 3.18055e-015 6.95746e-016 5.46658e-016 -9.54166e-015 0.0122867 -0.00324506 -0.000679321 3.47873e-016 -2.48481e-016 -2.22639e-014 6.95746e-016 5.46658e-016 -9.54166e-015 7.95139e-016 3.47873e-016 -9.54166e-015 8.44835e-016 6.95746e-016 -9.54166e-015 -59.7837 -15.2549 -21.5708 -1.55401 88.0355 -0.279185 47.3909 39.5984 -55.6826 -1.9883e-007 -7.69018e-007 -2.7088e-006 59.7641 -15.2679 21.5457 1.04363 88.0407 0.783111 -47.4287 39.5801 55.6983 7.2884e-007 -1.49015e-007 2.29647e-006 
1.62981 42.0383 4.01162 0 32.2496 -0 0.247757 -3.15617 -0.274287 0.481453 -6.31343 -0.536102 0.481453 -6.31343 -0.536102 6.88324 18.5495 0.129048 1.03659 6.40531 9.21594 -22.3538 -18.1204 -37.257 -71.0124 54.4894 26.9273 -6.72679 3.57459 -33.9121 12.5697 -39.2806 -18.8899 3.18055e-015 6.36111e-015 1.59028e-014 -2.08558e-007 2.34512e-007 2.89143e-007 5.21396e-007 -5.86279e-007 -7.22858e-007 3.18055e-015 6.36111e-015 1.59028e-014 -0.0146385 -8.48433e-005 -4.27579e-006 1.37517e-006 7.50995e-007 -1.03561e-006 3.18055e-015 6.36111e-015 1.59028e-014 -0.0187858 -0.00117456 5.59892e-005 5.21384e-007 -5.86161e-007 -7.22959e-007 3.18055e-015 6.36111e-015 1.59028e-014 -0.0122035 -0.00322899 0.000672188 5.21369e-007 -5.86206e-007 -7.22935e-007 3.18055e-015 6.36111e-015 1.59028e-014 -2.08558e-007 2.34512e-007 2.89143e-007 5.21396e-007 -5.86279e-007 -7.22858e-007 4.59596 13.7793 25.6776 44.3215 -3.66085 -24.1319 25.5677 23.9527 75.467 -28.6718 -21.9516 13.9368 -1.49089e-016 9.93923e-016 -3.18055e-015 4.96962e-017 1.3418e-015 -0 2.75869e-032 4.96962e-016 -3.18055e-015 -1.49089e-016 9.93923e-016 -3.18055e-015 0.014979 -9.33026e-005 -3.49547e-006 3.47873e-016 -7.95139e-016 -0 -1.49089e-016 9.93923e-016 -3.18055e-015 0.0189918 -0.00119122 -6.22102e-005 -6.95746e-016 1.49089e-016 -0 -1.49089e-016 9.93923e-016 -3.18055e-015 0.0122878 -0.00325721 -0.000675431 -3.47873e-016 -6.4605e-016 6.36111e-015 -1.49089e-016 9.93923e-016 -3.18055e-015 4.96962e-017 1.3418e-015 -0 2.75869e-032 4.96962e-016 -3.18055e-015 -59.7191 -15.763 -21.6743 -2.034 88.2327 0.19801 47.7561 39.4436 -55.9551 -1.45815e-006 -2.97929e-007 -4.59276e-006 59.6996 -15.7759 21.6491 1.47243 88.2382 0.356729 -47.7937 39.425 55.9704 -6.53155e-008 -2.29648e-006 -1.48945e-007 
1.62981 42.1211 3.81661 0 32.6251 -0 0.248396 -3.24619 -0.273638 0.482396 -6.49353 -0.534442 0.482397 -6.49352 -0.534442 7.19687 18.529 0.136313 1.02468 6.65143 9.28633 -22.525 -18.0145 -37.2832 -70.8259 54.5369 26.886 -6.72679 3.5746 -33.9121 12.4049 -39.3353 -18.9435 -1.12999e-008 2.43281e-006 -1.72879e-006 -6.3673e-007 3.13538e-006 -8.60394e-007 -1.12999e-008 2.43281e-006 -1.72879e-006 -1.12999e-008 2.43281e-006 -1.72879e-006 -0.014599 -8.69646e-005 -2.09494e-006 -1.10881e-008 2.43304e-006 -1.72848e-006 -1.12999e-008 2.43281e-006 -1.72879e-006 -0.0187842 -0.0011802 5.66098e-005 -1.10422e-008 2.43311e-006 -1.72839e-006 -1.12999e-008 2.43281e-006 -1.72879e-006 -0.0123263 -0.0032594 0.000687887 -1.11545e-008 2.43305e-006 -1.72854e-006 -1.12999e-008 2.43281e-006 -1.72879e-006 -6.3673e-007 3.13538e-006 -8.60394e-007 -1.12999e-008 2.43281e-006 -1.72879e-006 4.59596 13.7792 25.6776 44.3215 -3.66085 -24.1319 25.5677 23.9526 75.467 -28.6718 -21.9516 13.9368 2.98177e-016 -3.47873e-016 9.54166e-015 4.96962e-016 -4.96962e-016 2.22639e-014 8.94531e-016 -3.97569e-016 1.59028e-014 2.98177e-016 -3.47873e-016 9.54166e-015 0.0150046 -9.3638e-005 -2.90664e-006 1.49089e-016 1.49089e-016 3.18055e-015 2.98177e-016 -3.47873e-016 9.54166e-015 0.0190111 -0.00119442 -5.32725e-005 2.48481e-016 -4.96962e-017 3.18055e-015 2.98177e-016 -3.47873e-016 9.54166e-015 0.0122547 -0.00324017 -0.000676166 -1.65521e-032 -1.49089e-016 -6.36111e-015 2.98177e-016 -3.47873e-016 9.54166e-015 4.96962e-016 -4.96962e-016 2.22639e-014 8.94531e-016 -3.97569e-016 1.59028e-014 -59.6551 -16.2713 -21.7774 -2.63394 88.4297 0.795024 48.1196 39.2874 -56.2258 6.58145e-008 -2.2964e-006 1.48873e-007 59.6357 -16.2841 21.7521 2.01034 88.4356 -0.178774 -48.1569 39.2686 56.2406 1.19355e-006 -1.82669e-006 1.73758e-006 
1.62981 42.2041 3.62162 0 33.0006 -0 0.249035 -3.33625 -0.272988 0.483346 -6.67363 -0.532778 0.483346 -6.67362 -0.532778 7.51057 18.5088 0.143665 1.01246 6.89744 9.35679 -22.6961 -17.9085 -37.309 -70.6391 54.5843 26.8444 -6.72681 3.57459 -33.9121 12.24 -39.3898 -18.9974 -1.27222e-014 6.36111e-015 6.36111e-015 8.33581e-007 -9.35472e-007 -1.15914e-006 5.20988e-007 -5.8467e-007 -7.24465e-007 -1.27222e-014 6.36111e-015 6.36111e-015 -0.0146192 -8.96225e-005 -5.094e-006 5.20984e-007 -5.84577e-007 -7.2454e-007 -1.27222e-014 6.36111e-015 6.36111e-015 -0.0187633 -0.00117749 5.72949e-005 5.20976e-007 -5.84552e-007 -7.24566e-007 -1.27222e-014 6.36111e-015 6.36111e-015 -0.0122816 -0.00324559 0.000674984 5.20961e-007 -5.84596e-007 -7.24542e-007 -1.27222e-014 6.36111e-015 6.36111e-015 8.33581e-007 -9.35472e-007 -1.15914e-006 5.20988e-007 -5.8467e-007 -7.24465e-007 4.59596 13.7792 25.6776 44.3215 -3.66086 -24.1319 25.5677 23.9527 75.467 -28.6718 -21.9516 13.9368 -1.58063e-007 2.74072e-007 -3.15751e-007 2.98177e-016 4.47266e-016 -9.54166e-015 7.45443e-016 -1.49089e-016 -6.36111e-015 -1.58063e-007 2.74072e-007 -3.15751e-007 0.0150095 -9.26345e-005 3.76144e-006 3.47873e-016 -2.98177e-016 -6.36111e-015 -1.58063e-007 2.74072e-007 -3.15751e-007 0.0190033 -0.00118764 -5.54946e-005 -5.96354e-016 -9.93923e-017 9.54166e-015 -1.58063e-007 2.74072e-007 -3.15751e-007 0.0122786 -0.00324959 -0.000677911 -1.49089e-016 1.09332e-015 6.36111e-015 -1.58063e-007 2.74072e-007 -3.15751e-007 2.98177e-016 4.47266e-016 -9.54166e-015 7.45443e-016 -1.49089e-016 -6.36111e-015 -59.5919 -16.7797 -21.8802 -3.40777 88.6266 1.56598 48.4814 39.1298 -56.4945 -4.65553e-007 -4.28724e-006 -3.6335e-006 59.5726 -16.7923 21.8548 2.70091 88.6329 -0.867034 -48.5183 39.1107 56.509 7.2872e-007 -1.48716e-007 2.29652e-006 
1.62981 42.2875 3.42666 0 33.376 -0 0.249674 -3.42632 -0.272334 0.484301 -6.85372 -0.531108 0.484301 -6.85372 -0.531108 7.82429 18.4887 0.151139 0.999934 7.14332 9.42731 -22.867 -17.8024 -37.3344 -70.452 54.6316 26.8025 -6.72681 3.57458 -33.9121 12.0748 -39.4443 -19.0516 -2.08314e-007 2.33545e-007 2.90106e-007 4.16628e-007 -4.6709e-007 -5.80213e-007 -2.08314e-007 2.33545e-007 2.90106e-007 -2.08314e-007 2.33545e-007 2.90106e-007 -0.0145741 -8.78221e-005 3.41138e-006 -2.08312e-007 2.33508e-007 2.90136e-007 -2.08314e-007 2.33545e-007 2.90106e-007 -0.0187599 -0.00118015 6.23446e-005 -2.08309e-007 2.33498e-007 2.90147e-007 -2.08314e-007 2.33545e-007 2.90106e-007 -0.0122359 -0.00323256 0.000671307 -2.08303e-007 2.33516e-007 2.90137e-007 -2.08314e-007 2.33545e-007 2.90106e-007 4.16628e-007 -4.6709e-007 -5.80213e-007 -2.08314e-007 2.33545e-007 2.90106e-007 4.59596 13.7792 25.6776 44.3215 -3.66087 -24.1319 25.5677 23.9527 75.467 -28.6718 -21.9516 13.9368 -3.97569e-016 1.98785e-016 -3.18055e-015 -8.44835e-016 -9.93923e-017 3.18055e-015 -9.44227e-016 0 -0 -3.97569e-016 1.98785e-016 -3.18055e-015 0.0149939 -9.00024e-005 7.74887e-006 -7.25564e-015 9.24349e-015 3.18055e-015 -3.97569e-016 1.98785e-016 -3.18055e-015 0.0189863 -0.00118977 -6.23159e-005 1.49089e-016 7.45443e-016 -3.18055e-015 -3.97569e-016 1.98785e-016 -3.18055e-015 0.0122512 -0.0032432 -0.000676476 -6.4605e-016 -5.46658e-016 -0 -3.97569e-016 1.98785e-016 -3.18055e-015 -8.44835e-016 -9.93923e-017 3.18055e-015 -9.44227e-016 0 -0 -59.5295 -17.288 -21.9826 -4.4375 88.8229 2.59296 48.8416 38.971 -56.7616 2.90091e-006 -8.66135e-006 -8.03297e-006 59.5102 -17.3006 21.9571 3.62422 88.8299 -1.78794 -48.8781 38.9516 56.7755 -1.45726e-006 2.97119e-007 -4.59312e-006 
